<?xml version="1.0" encoding="UTF-8"?>
<svg width="256px" height="256px" viewBox="0 0 256 256" version="1.1" xmlns="http://www.w3.org/2000/svg" xmlns:xlink="http://www.w3.org/1999/xlink" preserveAspectRatio="xMidYMid">
    <g>
        <path d="M128,0 C57.308,0 0,57.308 0,128 C0,184.727 36.727,232.727 87.636,249.091 C94.545,250.182 96,246.545 96,243.636 C96,240.727 96,236.364 96,229.091 C60,236.364 52.364,214.545 52.364,214.545 C46.545,200 38.182,196.364 38.182,196.364 C27.273,187.273 38.182,187.273 38.182,187.273 C49.091,187.273 54.545,197.818 54.545,197.818 C65.455,216.727 83.636,211.636 96,208.727 C96.727,200 99.636,193.455 102.545,190.545 C74.909,187.273 45.818,176.727 45.818,125.818 C45.818,111.273 50.909,99.636 54.545,92.727 C54.545,92.727 47.273,74.545 54.545,55.273 C54.545,55.273 70.909,50.909 96,65.455 C106.182,62.545 117.818,61.091 128,61.091 C138.182,61.091 149.818,62.545 160,65.455 C185.091,50.909 201.455,55.273 201.455,55.273 C208.727,74.545 201.455,92.727 201.455,92.727 C205.091,99.636 210.182,111.273 210.182,125.818 C210.182,176.727 181.091,187.273 153.455,190.545 C157.091,194.182 160,201.455 160,211.636 C160,229.091 160,243.636 160,243.636 C160,246.545 161.455,250.182 168.364,249.091 C219.273,232.727 256,184.727 256,128 C256,57.308 198.692,0 128,0 Z" fill="#000000"></path>
    </g>
</svg> 