<?xml version="1.0" encoding="UTF-8"?>
<svg width="256px" height="256px" viewBox="0 0 256 256" version="1.1" xmlns="http://www.w3.org/2000/svg" xmlns:xlink="http://www.w3.org/1999/xlink" preserveAspectRatio="xMidYMid">
    <g>
        <path d="M128,0 C57.308,0 0,57.308 0,128 C0,198.692 57.308,256 128,256 C198.692,256 256,198.692 256,128 C256,57.308 198.692,0 128,0 Z M128,240 C71.562,240 24.4,195.6 16,140 L96,140 L96,116 L16,116 C24.4,60.4 71.562,16 128,16 C184.438,16 231.6,60.4 240,116 L160,116 L160,140 L240,140 C231.6,195.6 184.438,240 128,240 Z" fill="#000000"></path>
        <path d="M128,32 C77.6,32 36,73.6 36,124 C36,174.4 77.6,216 128,216 C178.4,216 220,174.4 220,124 C220,73.6 178.4,32 128,32 Z M128,200 C91.6,200 62,170.4 62,134 C62,97.6 91.6,68 128,68 C164.4,68 194,97.6 194,134 C194,170.4 164.4,200 128,200 Z" fill="#000000"></path>
    </g>
</svg> 