<?xml version="1.0" standalone="no"?>
<!DOCTYPE svg PUBLIC "-//W3C//DTD SVG 20010904//EN"
 "http://www.w3.org/TR/2001/REC-SVG-20010904/DTD/svg10.dtd">
<svg version="1.0" xmlns="http://www.w3.org/2000/svg"
 width="67.000000pt" height="66.000000pt" viewBox="0 0 67.000000 66.000000"
 preserveAspectRatio="xMidYMid meet">
<metadata>
Created by potrace 1.10, written by Peter Selinger 2001-2011
</metadata>
<g transform="translate(0.000000,66.000000) scale(0.100000,-0.100000)"
fill="#ff0000" stroke="none">
<path d="M381 585 c-17 -20 -38 -47 -47 -60 -21 -32 -32 -31 -105 6 -34 17
-63 29 -65 26 -4 -4 12 -106 22 -140 4 -14 -9 -24 -65 -49 -39 -17 -71 -34
-71 -38 0 -3 32 -21 70 -40 39 -19 70 -36 70 -39 0 -3 -9 -39 -19 -78 -13 -51
-15 -73 -8 -73 7 0 41 14 75 30 35 17 65 30 66 30 2 0 24 -27 50 -60 26 -33
51 -58 55 -55 5 2 11 19 15 37 3 17 11 49 17 70 l10 38 79 0 c44 0 80 4 80 8
0 5 -20 35 -45 66 -25 32 -45 61 -45 65 0 3 20 31 45 61 51 62 54 70 25 70
-13 0 -52 -32 -102 -82 -54 -57 -69 -69 -47 -38 19 25 42 54 52 65 10 11 23
28 28 38 8 14 6 17 -13 17 -15 0 -51 -28 -107 -82 l-84 -83 68 83 68 83 -17
77 c-9 42 -18 78 -20 79 -2 2 -17 -12 -35 -32z"/>
</g>
</svg>
